<svg xmlns="http://www.w3.org/2000/svg" viewBox="0 0 202 202"><path d="M182.94 0H19.06A19.08 19.08 0 0 0 0 19.06v163.88A19.08 19.08 0 0 0 19.06 202h163.88A19.08 19.08 0 0 0 202 182.94V19.06A19.08 19.08 0 0 0 182.94 0zm11.43 182.94a11.45 11.45 0 0 1-11.43 11.43H19.06a11.45 11.45 0 0 1-11.44-11.43V19.06A11.45 11.45 0 0 1 19.06 7.62h163.88a11.45 11.45 0 0 1 11.43 11.43z" fill="#9c9c9c"/><path d="M166.27 40.75H35.73a15.07 15.07 0 0 0-15.06 15.06v90.38a15.07 15.07 0 0 0 15.06 15.06h130.54a15.07 15.07 0 0 0 15.06-15.06V55.81a15.07 15.07 0 0 0-15.06-15.06zm-17.73 10L101 88.33 53.46 50.79zm12.71 100.42H40.75V67.32L101 113.66l60.25-46.35z" fill="#9c9c9c"/></svg>