<?xml version="1.0" encoding="utf-8"?>
<!-- Generator: Adobe Illustrator 21.0.0, SVG Export Plug-In . SVG Version: 6.00 Build 0)  -->
<svg version="1.1" id="Слой_1" xmlns="http://www.w3.org/2000/svg" xmlns:xlink="http://www.w3.org/1999/xlink" x="0px" y="0px"
	 viewBox="0 0 202 202" style="enable-background:new 0 0 202 202;" xml:space="preserve">
<style type="text/css">
	.st0{fill:#9C9C9C;}
</style>
<path class="st0" d="M182.9-0.3H19.1C8.5-0.3,0,8.2,0,18.8v163.9c0,10.5,8.5,19,19.1,19.1H183c10.5,0,19-8.5,19.1-19.1V18.8
	C202,8.2,193.5-0.3,182.9-0.3z M194.4,182.6c0,6.3-5.1,11.4-11.4,11.4H19.1c-6.3,0-11.4-5.1-11.4-11.4V18.8
	c0-6.3,5.1-11.4,11.4-11.4H183c6.3,0,11.4,5.1,11.4,11.4V182.6z"/>
<g>
	<path class="st0" d="M165.6,93.6l-28.7,28.7c-15.9,15.9-41.6,15.9-57.4,0c-2.5-2.5-4.5-5.3-6.2-8.2l13.3-13.3
		c0.6-0.6,1.4-1,2.2-1.4c0.9,3.2,2.5,6.1,5,8.6c7.9,7.9,20.8,7.9,28.7,0l28.7-28.7c7.9-7.9,7.9-20.8,0-28.7
		c-7.9-7.9-20.8-7.9-28.7,0l-10.2,10.2c-8.3-3.2-17.2-4.1-25.9-2.8l21.8-21.8c15.9-15.9,41.6-15.9,57.4,0
		C181.5,52,181.5,77.7,165.6,93.6z M89.7,140.8L79.5,151c-7.9,7.9-20.8,7.9-28.7,0c-7.9-7.9-7.9-20.8,0-28.7l28.7-28.7
		c7.9-7.9,20.8-7.9,28.7,0c2.5,2.5,4.1,5.5,5,8.6c0.8-0.4,1.5-0.8,2.2-1.4l13.3-13.3c-1.7-2.9-3.7-5.7-6.2-8.2
		c-15.9-15.9-41.6-15.9-57.4,0L36.4,108c-15.9,15.9-15.9,41.6,0,57.4c15.9,15.9,41.6,15.9,57.4,0l21.8-21.8
		C106.9,144.9,98,144,89.7,140.8z"/>
</g>
</svg>
