<svg xmlns="http://www.w3.org/2000/svg" fill="#9c9c9c" viewBox="0 0 53 53"><path d="M26 9C15.94 9 7.75 16.54 7.75 25.78a15.91 15.91 0 0 0 4.93 11.45c-1.24 3.23-2.39 4.5-2.88 4.56a1 1 0 0 0-.11 2 11.5 11.5 0 0 0 2.37.22 11.8 11.8 0 0 0 7.5-2.52A19.62 19.62 0 0 0 26 42.53c10.06 0 18.25-7.51 18.25-16.75S36.06 9 26 9zm-9.81 22a6.22 6.22 0 0 1-2.7-.58l.44-1.78a5.51 5.51 0 0 0 2.39.59c1 0 1.51-.41 1.51-1s-.45-.93-1.6-1.34c-1.59-.55-2.62-1.43-2.62-2.82 0-1.63 1.36-2.87 3.61-2.87a5.87 5.87 0 0 1 2.44.48l-.48 1.74a4.54 4.54 0 0 0-2-.45c-.93 0-1.39.42-1.39.92s.54.88 1.77 1.34c1.68.62 2.48 1.5 2.48 2.85C20 29.67 18.81 31 16.19 31zm13.52-.14l-.14-3.65c0-1.15-.08-2.54-.08-3.92-.3 1.22-.69 2.58-1.06 3.7l-1.16 3.73h-1.73l-1-3.7c-.31-1.12-.64-2.48-.86-3.72-.06 1.29-.1 2.76-.17 4l-.17 3.63h-2l.61-9.54h2.88l.93 3.19c.3 1.1.59 2.29.81 3.41.27-1.1.59-2.36.91-3.43l1-3.17h2.82l.52 9.54zm7.48-5.66c1.69.62 2.48 1.5 2.48 2.85 0 1.6-1.23 3-3.85 3a6.24 6.24 0 0 1-2.7-.58l.44-1.78a5.51 5.51 0 0 0 2.39.59c1 0 1.52-.41 1.52-1s-.45-.93-1.6-1.34c-1.59-.55-2.62-1.43-2.62-2.82 0-1.63 1.36-2.87 3.61-2.87a5.88 5.88 0 0 1 2.44.48l-.48 1.74a4.54 4.54 0 0 0-2-.45c-.94 0-1.39.42-1.39.92s.57.81 1.76 1.28z"/><path d="M48 0H5a5 5 0 0 0-5 5v43a5 5 0 0 0 5 5h43a5 5 0 0 0 5-5V5a5 5 0 0 0-5-5zm3 48a3 3 0 0 1-3 3H5a3 3 0 0 1-3-3V5a3 3 0 0 1 3-3h43a3 3 0 0 1 3 3z"/></svg>