<svg xmlns="http://www.w3.org/2000/svg" viewBox="0 0 202.07 202"><path d="M183 0H19.13A19.08 19.08 0 0 0 .07 19.06v163.88A19.08 19.08 0 0 0 19.13 202H183a19.08 19.08 0 0 0 19.06-19.06V19.06A19.08 19.08 0 0 0 183 0zm11.43 182.94A11.45 11.45 0 0 1 183 194.38H19.13a11.45 11.45 0 0 1-11.44-11.44V19.06A11.45 11.45 0 0 1 19.13 7.62H183a11.45 11.45 0 0 1 11.43 11.43z" fill="#9c9c9c"/><path d="M23.3 98.12L60.45 112l14.38 46.24a4.37 4.37 0 0 0 6.94 2.09l20.71-16.88a6.18 6.18 0 0 1 7.53-.21l37.35 27.12a4.38 4.38 0 0 0 6.86-2.65l27.37-131.62a4.38 4.38 0 0 0-5.86-5L23.26 89.93a4.38 4.38 0 0 0 .04 8.19zm49.21 6.48l72.6-44.72a1.26 1.26 0 0 1 1.53 2l-59.92 55.7a12.42 12.42 0 0 0-3.84 7.42l-2 15.13a1.88 1.88 0 0 1-3.67.26l-7.85-27.58a7.31 7.31 0 0 1 3.16-8.2z" fill="#9c9c9c"/></svg>